<?xml version="1.0" encoding="UTF-8" standalone="no"?>
<!-- Created with Inkscape (http://www.inkscape.org/) -->

<svg
   xmlns:dc="http://purl.org/dc/elements/1.1/"
   xmlns:cc="http://creativecommons.org/ns#"
   xmlns:rdf="http://www.w3.org/1999/02/22-rdf-syntax-ns#"
   xmlns:svg="http://www.w3.org/2000/svg"
   xmlns="http://www.w3.org/2000/svg"
   xmlns:sodipodi="http://sodipodi.sourceforge.net/DTD/sodipodi-0.dtd"
   xmlns:inkscape="http://www.inkscape.org/namespaces/inkscape"
   width="60"
   height="60"
   id="svg3985"
   version="1.1"
   inkscape:version="0.91 r13725"
   sodipodi:docname="icon.svg"
   inkscape:export-filename="/home/jtebert/Copy/Projects/Programming/html/juliaebert.com/imgs/icon_black.png"
   inkscape:export-xdpi="360"
   inkscape:export-ydpi="360">
  <defs
     id="defs3987" />
  <sodipodi:namedview
     id="base"
     pagecolor="#ffffff"
     bordercolor="#666666"
     borderopacity="1.0"
     inkscape:pageopacity="0.0"
     inkscape:pageshadow="2"
     inkscape:zoom="4.8611111"
     inkscape:cx="34.395427"
     inkscape:cy="13.426286"
     inkscape:current-layer="layer1"
     showgrid="true"
     inkscape:grid-bbox="true"
     inkscape:document-units="px"
     inkscape:window-width="1241"
     inkscape:window-height="648"
     inkscape:window-x="338"
     inkscape:window-y="525"
     inkscape:window-maximized="0"
     fit-margin-top="0"
     fit-margin-left="0"
     fit-margin-right="0"
     fit-margin-bottom="0" />
  <metadata
     id="metadata3990">
    <rdf:RDF>
      <cc:Work
         rdf:about="">
        <dc:format>image/svg+xml</dc:format>
        <dc:type
           rdf:resource="http://purl.org/dc/dcmitype/StillImage" />
        <dc:title></dc:title>
      </cc:Work>
    </rdf:RDF>
  </metadata>
  <g
     id="layer1"
     inkscape:label="Layer 1"
     inkscape:groupmode="layer"
     transform="translate(11.314285,5.6914287)">
    <rect
       style="color:#000000;display:inline;overflow:visible;visibility:visible;opacity:1;fill:#ffffff;fill-opacity:1;fill-rule:nonzero;stroke:none;stroke-width:0.1;stroke-linecap:butt;stroke-linejoin:miter;stroke-miterlimit:4;stroke-dasharray:none;stroke-dashoffset:0;stroke-opacity:1;marker:none;enable-background:accumulate"
       id="rect3334"
       width="60"
       height="60"
       x="-11.314285"
       y="-5.6914287" />
    <path
       style="font-style:normal;font-variant:normal;font-weight:normal;font-stretch:normal;font-size:600px;font-family:FairfaxStation;-inkscape-font-specification:FairfaxStation;fill:#000000;fill-opacity:1;stroke:none"
       d="m -4.707788,0.30857134 0,9.55234536 3.6768953,-3.8447652 13.3158847,0 c -0.0398,0.052505 -0.07997,0.1035858 -0.119133,0.1570402 -3.8426275,3.8426543 -5.7671485,8.4758613 -5.7671485,13.9007213 0,4.961108 1.636525,9.280764 4.8953065,12.963899 -0.924355,0.18149 -1.8674545,0.276177 -2.8321295,0.276174 C 7.1433295,33.31399 5.8438355,33.14402 4.56297,32.804961 3.282085,32.428238 2.092304,31.879958 0.99979347,31.164166 l 0,-5.366426 -5.70758147,8.247292 c 1.9966588,1.544588 4.03088417,2.772751 6.102888,3.676895 2.109667,0.866475 4.4673545,1.299638 7.0667875,1.29964 2.5617415,-2e-6 4.8975245,-0.433165 7.0072215,-1.29964 0.142195,-0.06095 0.280699,-0.131094 0.422382,-0.194946 l 0,6.427799 -4.126354,4.353791 13.954874,0 -4.120939,-4.353791 0,-4.694947 c 1.427156,0.319031 2.915237,0.48195 4.467509,0.48195 3.013806,0 5.7279,-0.603137 8.138989,-1.808663 2.411032,-1.205529 4.648184,-2.844959 6.720217,-4.916968 l -5.593862,-8.761733 0,6.389892 c -1.205558,1.017174 -2.559905,1.823233 -4.066788,2.425993 -1.469269,0.565095 -2.993573,0.888557 -4.575811,0.963898 -0.113037,3e-6 -0.228156,3e-6 -0.341157,0 -0.07536,3e-6 -0.168589,3e-6 -0.281588,0 -1.567,10e-7 -3.046602,-0.234174 -4.440434,-0.698556 l 0,-10.889892 5.685922,0 4.348375,4.694947 0,-15.092058 -4.348375,4.68953 -5.685922,0 0,-9.9368226 c 1.479399,-0.5401686 3.042371,-0.8238929 4.722022,-0.7418773 0.07145,-0.014035 0.136187,-0.029016 0.205777,-0.043318 l 11.85379,0 3.671481,3.8393513 0,-9.54693146 -16.608305,0 -13.564982,0 -16.613718,0 z m 20.572204,10.20758066 0,6.222021 -3.362817,0 c 0.589102,-2.385875 1.714295,-4.457941 3.362817,-6.222021 z m -3.530688,11.929602 3.530688,0 0,7.131768 c -1.87681,-2.00624 -3.056986,-4.384249 -3.530688,-7.131768 z"
       id="path2988"
       inkscape:connector-curvature="0" />
  </g>
</svg>
