<?xml version="1.0" encoding="UTF-8" standalone="no"?>
<!-- Created with Inkscape (http://www.inkscape.org/) -->

<svg
   xmlns:dc="http://purl.org/dc/elements/1.1/"
   xmlns:cc="http://creativecommons.org/ns#"
   xmlns:rdf="http://www.w3.org/1999/02/22-rdf-syntax-ns#"
   xmlns:svg="http://www.w3.org/2000/svg"
   xmlns="http://www.w3.org/2000/svg"
   xmlns:xlink="http://www.w3.org/1999/xlink"
   xmlns:sodipodi="http://sodipodi.sourceforge.net/DTD/sodipodi-0.dtd"
   xmlns:inkscape="http://www.inkscape.org/namespaces/inkscape"
   width="339.90625"
   height="123.59149"
   id="svg3112"
   version="1.1"
   inkscape:version="0.48.4 r9939"
   sodipodi:docname="pterodactyl.svg"
   inkscape:export-filename="/home/jtebert/Copy/Projects/Programming/html/imgs/pterodactyl.png"
   inkscape:export-xdpi="90"
   inkscape:export-ydpi="90">
  <defs
     id="defs3114">
    <radialGradient
       inkscape:collect="always"
       xlink:href="#linearGradient3797-9"
       id="radialGradient3098"
       gradientUnits="userSpaceOnUse"
       gradientTransform="matrix(1,0,0,0.36360481,0,125.43606)"
       cx="599.54688"
       cy="197.10403"
       fx="599.54688"
       fy="197.10403"
       r="169.95312" />
    <linearGradient
       id="linearGradient3797-9">
      <stop
         style="stop-color:#ffffff;stop-opacity:1;"
         offset="0"
         id="stop3799-7" />
      <stop
         style="stop-color:#aaaaaa;stop-opacity:1;"
         offset="1"
         id="stop3801-6" />
    </linearGradient>
  </defs>
  <sodipodi:namedview
     id="base"
     pagecolor="#ffffff"
     bordercolor="#666666"
     borderopacity="1.0"
     inkscape:pageopacity="0.0"
     inkscape:pageshadow="2"
     inkscape:zoom="1.0450944"
     inkscape:cx="161.69672"
     inkscape:cy="102.95968"
     inkscape:document-units="px"
     inkscape:current-layer="layer1"
     showgrid="false"
     fit-margin-top="0"
     fit-margin-left="0"
     fit-margin-right="0"
     fit-margin-bottom="0"
     inkscape:window-width="1600"
     inkscape:window-height="836"
     inkscape:window-x="-2"
     inkscape:window-y="41"
     inkscape:window-maximized="1" />
  <metadata
     id="metadata3117">
    <rdf:RDF>
      <cc:Work
         rdf:about="">
        <dc:format>image/svg+xml</dc:format>
        <dc:type
           rdf:resource="http://purl.org/dc/dcmitype/StillImage" />
        <dc:title></dc:title>
      </cc:Work>
    </rdf:RDF>
  </metadata>
  <g
     inkscape:label="Layer 1"
     inkscape:groupmode="layer"
     id="layer1"
     transform="translate(-58.618304,-599.13787)">
    <path
       inkscape:connector-curvature="0"
       id="path3458"
       d="m 193.3683,599.1421 c -0.87737,-0.0111 -1.79446,-2.5e-4 -2.75,0.0312 11.25447,4.97257 20.25999,7.32111 27.28125,11.90625 1.11367,0.72727 1.89076,1.34572 2.40625,1.875 -13.72565,-3.87465 -17.23705,-6.31445 -22.96875,-7.8125 2.69378,3.16914 16.75221,11.36262 28.9375,15.5625 2.72235,1.50138 4.1683,2.20945 2.5625,5.84375 -1.11084,2.5141 -2.37322,3.96495 -4.8125,5.15625 -12.16598,5.9413 -24.05946,6.39785 -36.40625,6.46875 -7.5931,0.0437 -23.0743,-2.90477 -35.53125,-6.375 -0.63348,-2.28406 -1.058,-4.46093 -2.5625,-6.625 -1.00611,-1.6648 -3.9563,-3.2138 -5.5625,-2.75 2.43802,1.5724 3.26324,3.2321 3.65625,4.8125 -2.87283,-1.6775 -4.93998,-6.22746 -8.84375,-4.84375 3.47524,2.0012 4.57493,3.56905 6.46875,6.96875 -3.06949,-2.4081 -5.16247,-4.16965 -7.34375,-3.28125 3.29236,2.5757 5.34576,4.44572 6.71875,6.40625 -11.21395,3.4329 -29.69494,8.21453 -38.125,12.125 -21.144446,9.8083 -28.008606,15.1712 -47.874996,33.625 22.84836,-2.5848 45.993186,-7.25315 63.656246,-8.71875 15.76995,-1.3085 33.8658,-0.7787 46.6875,2.5625 22.12543,5.7656 31.71541,11.455 40.96875,27.1875 0.38221,0.8642 1.02416,1.76245 1.09375,2.53125 0.34511,4.5504 -1.16172,3.82295 -1.3125,9.21875 -0.12695,4.5443 0.28543,3.26675 2.71875,7.59375 1.5672,2.7869 1.72437,2.18875 3.46875,3.03125 -1.62098,-3.5321 -2.2152,-3.29765 -1.90625,-5.59375 2.34051,2.2576 3.25372,7.06765 7.28125,6.65625 -3.09552,-2.4679 -1.92662,-2.4633 -4.53125,-8.125 2.88205,2.8619 3.39268,5.2274 6.09375,5.125 -4.26898,-7.5837 -3.6436,-8.5554 -4.5,-10.125 -0.89252,-2.3955 -1.88096,-5.14945 -2.5,-7.78125 -1.41764,-6.0268 -3.19538,-11.85615 -1.0625,-16.15625 2.18393,-4.403 6.49441,-5.4257 10.90625,-5.5 0.8249,0.9039 1.21336,2.97 1.625,4.5625 0.63388,2.4523 1.28125,2.71875 1.28125,2.71875 0,0 0.61612,-0.26645 1.25,-2.71875 0.41165,-1.5925 0.83134,-3.6586 1.65625,-4.5625 4.41183,0.074 8.72233,1.097 10.90625,5.5 2.13288,4.3001 0.35514,10.12945 -1.0625,16.15625 -0.61903,2.6318 -1.63873,5.38575 -2.53125,7.78125 -0.85641,1.5696 -0.23102,2.5413 -4.5,10.125 2.70107,0.1024 3.2117,-2.2631 6.09375,-5.125 -2.60463,5.6617 -1.43573,5.6571 -4.53125,8.125 4.02754,0.4114 4.94074,-4.39865 7.28125,-6.65625 0.30896,2.2961 -0.28527,2.06165 -1.90625,5.59375 1.74439,-0.8425 1.90155,-0.24435 3.46875,-3.03125 2.43332,-4.327 2.8457,-3.04945 2.71875,-7.59375 -0.15079,-5.3958 -1.79325,-4.68065 -1.3125,-9.21875 0.12561,-1.1858 0.69925,-1.80505 1.125,-2.53125 9.23136,-15.7454 18.81206,-21.4219 40.9375,-27.1875 12.82169,-3.3412 30.9175,-3.871 46.6875,-2.5625 17.663,1.4656 40.80785,6.13385 63.65625,8.71875 -19.8664,-18.4539 -26.7305,-23.8167 -47.875,-33.625 -8.40064,-3.89683 -26.74349,-8.66341 -37.96875,-12.09375 1.36969,-1.81961 3.369,-3.63077 6.4375,-6.03125 -2.1813,-0.8885 -4.27425,0.87325 -7.34375,3.28125 1.8939,-3.3996 2.99345,-4.9362 6.46875,-6.9375 -3.9038,-1.38364 -6.0022,3.16625 -8.875,4.84375 0.393,-1.5804 1.2495,-3.2401 3.6875,-4.8125 -1.6062,-0.4638 -4.58764,1.0852 -5.59375,2.75 -1.40773,2.02488 -1.83718,4.06377 -2.40625,6.1875 -12.45694,3.47023 -27.93814,6.41865 -35.53125,6.375 -12.34679,-0.071 -20.21254,0.48935 -31.75,-5.46875 -1.28368,-0.6629 2.53605,-4.30635 4.53125,-6.65625 2.87593,-3.3873 5.49777,-6.27961 5.5,-9.5 6.91468,0.83487 11.47438,-0.0531 22.78125,-1.6875 -7.50759,-1.66303 -8.36091,-1.8332 -20.46875,-4.6875 -4.18509,-0.98659 -8.14949,-5.62272 -12.3125,-5.40625 -5.637,0.29313 -7.0003,1.57737 -10.5,1.15625 -15.78015,-1.89886 -20.77693,-6.6145 -33.9375,-6.78125 z"
       style="fill:#ffffff;fill-opacity:1;stroke:none" />
  </g>
</svg>
