<?xml version="1.0" encoding="UTF-8" standalone="no"?>
<!-- Created with Inkscape (http://www.inkscape.org/) -->

<svg
   xmlns:dc="http://purl.org/dc/elements/1.1/"
   xmlns:cc="http://creativecommons.org/ns#"
   xmlns:rdf="http://www.w3.org/1999/02/22-rdf-syntax-ns#"
   xmlns:svg="http://www.w3.org/2000/svg"
   xmlns="http://www.w3.org/2000/svg"
   xmlns:sodipodi="http://sodipodi.sourceforge.net/DTD/sodipodi-0.dtd"
   xmlns:inkscape="http://www.inkscape.org/namespaces/inkscape"
   width="300"
   height="300"
   id="svg3104"
   version="1.1"
   inkscape:version="0.91 r13725"
   sodipodi:docname="JTE-dark.svg"
   inkscape:export-filename="/home/jtebert/Copy/Projects/Programming/html/bootstrap-practice/assets/imgs/logos/JTE_3.png"
   inkscape:export-xdpi="120"
   inkscape:export-ydpi="120">
  <defs
     id="defs3106">
    <inkscape:perspective
       sodipodi:type="inkscape:persp3d"
       inkscape:vp_x="0 : 526.18109 : 1"
       inkscape:vp_y="0 : 1000 : 0"
       inkscape:vp_z="744.09448 : 526.18109 : 1"
       inkscape:persp3d-origin="372.04724 : 350.78739 : 1"
       id="perspective3112" />
    <inkscape:perspective
       id="perspective3091"
       inkscape:persp3d-origin="0.5 : 0.33333333 : 1"
       inkscape:vp_z="1 : 0.5 : 1"
       inkscape:vp_y="0 : 1000 : 0"
       inkscape:vp_x="0 : 0.5 : 1"
       sodipodi:type="inkscape:persp3d" />
  </defs>
  <sodipodi:namedview
     id="base"
     pagecolor="#ffffff"
     bordercolor="#666666"
     borderopacity="1.0"
     inkscape:pageopacity="0.0"
     inkscape:pageshadow="2"
     inkscape:zoom="0.69933919"
     inkscape:cx="-625.40548"
     inkscape:cy="99.229376"
     inkscape:document-units="px"
     inkscape:current-layer="layer1"
     showgrid="false"
     units="px"
     inkscape:window-width="1920"
     inkscape:window-height="1050"
     inkscape:window-x="0"
     inkscape:window-y="0"
     inkscape:window-maximized="1"
     width="744.09px" />
  <metadata
     id="metadata3109">
    <rdf:RDF>
      <cc:Work
         rdf:about="">
        <dc:format>image/svg+xml</dc:format>
        <dc:type
           rdf:resource="http://purl.org/dc/dcmitype/StillImage" />
        <dc:title />
      </cc:Work>
    </rdf:RDF>
  </metadata>
  <g
     inkscape:label="Layer 1"
     inkscape:groupmode="layer"
     id="layer1"
     transform="translate(-46.031247,-494.44062)">
    <path
       style="font-style:normal;font-variant:normal;font-weight:normal;font-stretch:normal;font-size:600px;font-family:FairfaxStation;-inkscape-font-specification:FairfaxStation;fill:#1a354c;stroke:none;fill-opacity:1"
       d="m 49.821858,494.44062 0,59.70216 22.98059,-24.02979 83.224292,0 c -0.24876,0.32819 -0.49987,0.64742 -0.74458,0.98151 -24.01643,24.01658 -36.04469,52.97414 -36.04469,86.87951 0,31.00692 10.22829,58.00477 30.59567,81.02437 -5.77721,1.13431 -11.67159,1.7261 -17.70081,1.72608 -8.24099,3e-5 -16.36282,-1.06228 -24.36823,-3.18141 -8.005542,-2.35451 -15.441672,-5.78126 -22.269862,-10.25496 l 0,-33.54017 -35.67238,51.54558 c 12.47911,9.65368 25.19302,17.3297 38.14305,22.98059 13.185422,5.41547 27.920972,8.12274 44.167422,8.12275 16.01088,-10e-6 30.60953,-2.70728 43.79513,-8.12275 0.88873,-0.38088 1.75437,-0.81933 2.63989,-1.21841 l 0,40.17375 -25.78971,27.21119 87.21796,0 -25.75587,-27.21119 0,-29.34342 c 8.91973,1.99394 18.22024,3.01218 27.92194,3.01218 18.83628,0 35.79937,-3.7696 50.86868,-11.30414 15.06895,-7.53455 29.05114,-17.78099 42.00136,-30.73105 l -34.96165,-54.76083 0,39.93682 c -7.53473,6.35734 -15.9994,11.39521 -25.41741,15.16246 -9.18294,3.53185 -18.70984,5.55349 -28.59883,6.02436 -0.70648,2e-5 -1.42597,2e-5 -2.13223,0 -0.47101,2e-5 -1.05368,2e-5 -1.75992,0 -9.79375,10e-6 -19.04127,-1.46358 -27.75272,-4.36597 l 0,-68.06183 35.53702,0 27.17734,29.34342 0,-94.32536 -27.17734,29.30956 -35.53702,0 0,-62.10515 c 9.24625,-3.37605 19.01482,-5.14932 29.51264,-4.63673 0.44653,-0.0877 0.85117,-0.18133 1.28611,-0.27076 l 74.08619,0 22.94675,23.99595 0,-59.66832 -103.8019,0 -84.78114,0 -103.835742,0 z m 128.576272,63.79738 0,38.88763 -21.0176,0 c 3.68188,-14.91172 10.71434,-27.86213 21.0176,-38.88763 z m -22.06679,74.56001 22.06679,0 0,44.57356 c -11.73006,-12.53901 -19.10615,-27.40156 -22.06679,-44.57356 z"
       id="path2988"
       inkscape:connector-curvature="0" />
  </g>
</svg>
