<?xml version="1.0" encoding="UTF-8" standalone="no"?>
<!-- Created with Inkscape (http://www.inkscape.org/) -->

<svg
   xmlns:dc="http://purl.org/dc/elements/1.1/"
   xmlns:cc="http://creativecommons.org/ns#"
   xmlns:rdf="http://www.w3.org/1999/02/22-rdf-syntax-ns#"
   xmlns:svg="http://www.w3.org/2000/svg"
   xmlns="http://www.w3.org/2000/svg"
   xmlns:sodipodi="http://sodipodi.sourceforge.net/DTD/sodipodi-0.dtd"
   xmlns:inkscape="http://www.inkscape.org/namespaces/inkscape"
   width="30"
   height="30"
   viewBox="0 0 30 29.999998"
   id="svg2"
   version="1.1"
   inkscape:version="0.91 r13725"
   sodipodi:docname="JTE_2.svg"
   inkscape:export-filename="/home/jtebert/Copy/Projects/Programming/html/bootstrap-practice/assets/imgs/logos/JTE_3.png"
   inkscape:export-xdpi="1200"
   inkscape:export-ydpi="1200">
  <defs
     id="defs4" />
  <sodipodi:namedview
     id="base"
     pagecolor="#ffffff"
     bordercolor="#666666"
     borderopacity="1.0"
     inkscape:pageopacity="0.0"
     inkscape:pageshadow="2"
     inkscape:zoom="11.313708"
     inkscape:cx="20.821956"
     inkscape:cy="9.5307031"
     inkscape:document-units="px"
     inkscape:current-layer="layer1"
     showgrid="false"
     inkscape:object-paths="true"
     inkscape:snap-intersection-paths="true"
     inkscape:object-nodes="true"
     inkscape:snap-smooth-nodes="true"
     inkscape:snap-midpoints="true"
     inkscape:snap-bbox="false"
     inkscape:bbox-paths="true"
     inkscape:snap-global="true"
     fit-margin-top="0"
     fit-margin-left="0"
     fit-margin-right="0"
     fit-margin-bottom="0"
     inkscape:window-width="1600"
     inkscape:window-height="874"
     inkscape:window-x="0"
     inkscape:window-y="0"
     inkscape:window-maximized="1"
     units="px"
     inkscape:snap-page="true" />
  <metadata
     id="metadata7">
    <rdf:RDF>
      <cc:Work
         rdf:about="">
        <dc:format>image/svg+xml</dc:format>
        <dc:type
           rdf:resource="http://purl.org/dc/dcmitype/StillImage" />
        <dc:title />
      </cc:Work>
    </rdf:RDF>
  </metadata>
  <g
     inkscape:label="Layer 1"
     inkscape:groupmode="layer"
     id="layer1"
     transform="translate(-233.16873,-86.486299)">
    <g
       id="g4246">
      <path
         d="m 176.75424,101.20947 q 0.8601,0.58487 2.06425,0.96332 1.20415,0.34404 2.68354,0.34404 1.99544,0 3.16519,-0.72249 1.16974,-0.72249 1.78902,-2.098657 0.61928,-1.376171 0.7913,-3.371618 0.20642,-2.029852 0.20642,-4.575768 l 0,-12.41994 1.75462,0 0,12.41994 q 0,2.786746 -0.24083,5.091832 -0.24083,2.270681 -1.06653,3.887681 -0.7913,1.617 -2.30509,2.51151 -1.51378,0.89451 -4.0941,0.89451 -3.09639,0 -5.29826,-1.51378 l 0.55047,-1.41058 z"
         style="font-style:normal;font-variant:normal;font-weight:300;font-stretch:normal;font-size:medium;line-height:125%;font-family:Raleway;-inkscape-font-specification:'Raleway Light';text-align:start;letter-spacing:0px;word-spacing:0px;text-anchor:start;fill:#000000;fill-opacity:1;stroke:none;stroke-width:1px;stroke-linecap:butt;stroke-linejoin:miter;stroke-opacity:1"
         id="path3345"
         inkscape:connector-curvature="0" />
      <path
         sodipodi:nodetypes="ccccccccc"
         d="m 198.15368,80.910953 -8.94511,0 0,27.491787 -1.75462,0 0,-27.491787 -8.9451,0 0,-1.582596 19.64483,0 z"
         style="font-style:normal;font-variant:normal;font-weight:300;font-stretch:normal;font-size:medium;line-height:125%;font-family:Raleway;-inkscape-font-specification:'Raleway Light';text-align:start;letter-spacing:0px;word-spacing:0px;text-anchor:start;fill:#000000;fill-opacity:1;stroke:none;stroke-width:1px;stroke-linecap:butt;stroke-linejoin:miter;stroke-opacity:1"
         id="path3347"
         inkscape:connector-curvature="0" />
      <path
         sodipodi:nodetypes="scsccccscsscsssscccsscscccs"
         d="m 180.53869,91.507467 c 0,-1.467915 0.2523,-2.924362 0.7569,-4.369341 0.52753,-1.467915 1.28442,-2.775278 2.27068,-3.922087 0.98625,-1.146809 2.1904,-2.075724 3.61245,-2.786745 1.44497,-0.733958 3.08491,-1.100937 4.91981,-1.100937 l -0.13762,1.617001 c -1.55966,0 -2.93583,0.321106 -4.12851,0.963319 -1.19269,0.619277 -2.20188,1.433511 -3.02758,2.442703 -0.8257,1.009192 -1.45644,2.156001 -1.89223,3.440427 -0.41285,1.261489 -0.61928,2.534447 -0.61928,3.818873 0,1.444979 0.2523,2.82115 0.75689,4.128512 0.5046,1.307362 1.19269,2.465639 2.06426,3.474831 0.87157,0.986257 1.9037,1.777557 3.09638,2.373897 1.19268,0.59634 2.47711,0.89451 3.85328,0.89451 0.73396,0 1.49085,-0.0917 2.27068,-0.27523 0.77983,-0.18349 1.52526,-0.4702 2.23628,-0.86011 0.71102,-0.38991 1.37617,-0.88304 1.99545,-1.479383 0.61927,-0.619279 1.13534,-1.341769 1.54819,-2.167472 l 1.51379,0.72249 c -0.41285,0.917448 -0.97479,1.731685 -1.68581,2.442705 -0.71102,0.71102 -1.50232,1.30736 -2.3739,1.78902 -0.87157,0.48166 -1.80049,0.84864 -2.78674,1.10094 -0.96332,0.22936 -1.91517,0.34404 -2.85556,0.34404 -1.67434,0 -3.21106,-0.36698 -4.61017,-1.10093 -1.37617,-0.73396 -2.56885,-1.68581 -3.57804,-2.85556 -1.00919,-1.192683 -1.80049,-2.53445 -2.3739,-4.025301 -0.55047,-1.513787 -0.8257,-3.050511 -0.8257,-4.610172 z"
         style="font-style:normal;font-variant:normal;font-weight:300;font-stretch:normal;font-size:medium;line-height:125%;font-family:Raleway;-inkscape-font-specification:'Raleway Light';text-align:start;letter-spacing:0px;word-spacing:0px;text-anchor:start;fill:#000000;fill-opacity:1;stroke:none;stroke-width:1px;stroke-linecap:butt;stroke-linejoin:miter;stroke-opacity:1"
         id="path3351"
         inkscape:connector-curvature="0" />
      <path
         d="m 187.45395,79.328357 14.17456,0 0,1.582596 -12.41994,0 z"
         style="font-style:normal;font-variant:normal;font-weight:300;font-stretch:normal;font-size:medium;line-height:125%;font-family:Raleway;-inkscape-font-specification:'Raleway Light';text-align:start;letter-spacing:0px;word-spacing:0px;text-anchor:start;fill:#000000;fill-opacity:1;stroke:none;stroke-width:1px;stroke-linecap:butt;stroke-linejoin:miter;stroke-opacity:1"
         id="path3359"
         inkscape:connector-curvature="0"
         sodipodi:nodetypes="ccccc" />
      <path
         inkscape:connector-curvature="0"
         id="path3361"
         style="font-style:normal;font-variant:normal;font-weight:300;font-stretch:normal;font-size:medium;line-height:125%;font-family:Raleway;-inkscape-font-specification:'Raleway Light';text-align:start;letter-spacing:0px;word-spacing:0px;text-anchor:start;fill:#000000;fill-opacity:1;stroke:none;stroke-width:1px;stroke-linecap:butt;stroke-linejoin:miter;stroke-opacity:1"
         d="m 181.35143,90.509744 17.89437,0 0,1.513788 -17.89437,0 z"
         sodipodi:nodetypes="ccccc" />
      <path
         sodipodi:nodetypes="ccccc"
         inkscape:connector-curvature="0"
         id="path4165"
         style="font-style:normal;font-variant:normal;font-weight:300;font-stretch:normal;font-size:medium;line-height:125%;font-family:Raleway;-inkscape-font-specification:'Raleway Light';text-align:start;letter-spacing:0px;word-spacing:0px;text-anchor:start;fill:#000000;fill-opacity:1;stroke:none;stroke-width:1px;stroke-linecap:butt;stroke-linejoin:miter;stroke-opacity:1"
         d="m 189.20857,79.328357 -14.17456,0 0,1.582596 12.41994,0 z" />
    </g>
    <path
       inkscape:connector-curvature="0"
       id="path4154"
       style="font-style:normal;font-variant:normal;font-weight:300;font-stretch:normal;font-size:medium;line-height:125%;font-family:'Roboto Slab';-inkscape-font-specification:'Roboto Slab Light';text-align:start;letter-spacing:0px;word-spacing:0px;text-anchor:start;fill:#000000;fill-opacity:1;stroke:none;stroke-width:1px;stroke-linecap:butt;stroke-linejoin:miter;stroke-opacity:1"
       d="m 169.44614,124.38271 0,0.78222 -1.43261,0.11426 0,8.27051 q 0,1.74902 -1.0459,2.78613 -1.03711,1.02832 -2.68945,1.02832 -1.80176,0 -2.84766,-0.93164 -1.0459,-0.93164 -1.00195,-2.72461 l 0.0176,-0.0527 0.98438,0 q 0,1.38867 0.73828,2.10937 0.73828,0.71192 2.10938,0.71192 1.16894,0 1.9248,-0.79102 0.75586,-0.7998 0.75586,-2.13574 l 0,-8.27051 -1.43262,-0.11426 0,-0.78222 2.48731,0 1.43261,0 z" />
    <path
       inkscape:connector-curvature="0"
       id="path4160"
       style="font-style:normal;font-variant:normal;font-weight:300;font-stretch:normal;font-size:medium;line-height:125%;font-family:'Roboto Slab';-inkscape-font-specification:'Roboto Slab Light';text-align:start;letter-spacing:0px;word-spacing:0px;text-anchor:start;fill:#000000;fill-opacity:1;stroke:none;stroke-width:1px;stroke-linecap:butt;stroke-linejoin:miter;stroke-opacity:1"
       d="m 165.52623,125.16493 0,-0.78222 3.91992,0 0,0.78222 -1.43262,0.11426 0,14.6377 1.43262,0.11425 0,0.77344 -3.91992,0 0,-0.77344 1.43261,-0.11425 0,-14.6377 z"
       sodipodi:nodetypes="ccccccccccccc" />
    <path
       inkscape:connector-curvature="0"
       id="path4162"
       style="font-style:normal;font-variant:normal;font-weight:300;font-stretch:normal;font-size:medium;line-height:125%;font-family:'Roboto Slab';-inkscape-font-specification:'Roboto Slab Light';text-align:start;letter-spacing:0px;word-spacing:0px;text-anchor:start;fill:#000000;fill-opacity:1;stroke:none;stroke-width:1px;stroke-linecap:butt;stroke-linejoin:miter;stroke-opacity:1"
       d="m 170.88756,125.27919 c -1.42969,0 -2.56641,0.52148 -3.41016,1.56445 -0.84375,1.03711 -1.26562,2.37891 -1.26562,4.02539 l 0,0.18457 c 0,1.64649 0.41601,2.99414 1.24804,4.04297 0.83789,1.04297 1.93653,1.56446 3.2959,1.56446 0.72071,0 1.37403,-0.12598 1.95996,-0.37793 0.5918,-0.25195 1.05469,-0.57715 1.38867,-0.97559 l 0.14942,-1.94238 0.81738,0 0,2.25 c -0.39844,0.55078 -0.98145,1.01074 -1.74902,1.37988 -0.76172,0.36914 -1.61719,0.55371 -2.56641,0.55371 -1.64063,0 -2.98242,-0.60644 -4.02539,-1.81933 -1.04297,-1.21875 -1.56445,-2.77735 -1.56445,-4.67579 l 0,-0.16699 c 0,-1.90429 0.51855,-3.46289 1.55566,-4.67578 1.04297,-1.21875 2.40527,-1.82812 4.08692,-1.82812 z"
       sodipodi:nodetypes="ccsscsccccccscssccc" />
    <path
       inkscape:connector-curvature="0"
       id="path4176"
       style="font-style:normal;font-variant:normal;font-weight:normal;font-stretch:normal;font-size:medium;line-height:125%;font-family:'Roboto Slab';-inkscape-font-specification:'Roboto Slab';text-align:start;letter-spacing:0px;word-spacing:0px;text-anchor:start;fill:#000000;fill-opacity:1;stroke:none;stroke-width:1px;stroke-linecap:butt;stroke-linejoin:miter;stroke-opacity:1"
       d="m 161.55357,146.38271 0,1.11621 -1.43261,0.24609 0,7.89258 q 0,1.71387 -1.08985,2.72461 -1.08105,1.00195 -2.8125,1.00195 -1.8457,0 -2.93554,-0.93164 -1.08985,-0.94043 -1.0459,-2.72461 l 0.0176,-0.0527 1.66113,0 q 0,1.18652 0.59765,1.77539 0.60645,0.58008 1.70508,0.58008 0.95801,0 1.56446,-0.64161 0.60644,-0.65039 0.60644,-1.73144 l 0,-7.89258 -1.43262,-0.24609 0,-1.11621 3.16407,0 1.43261,0 z" />
    <path
       inkscape:connector-curvature="0"
       id="path4178"
       style="font-style:normal;font-variant:normal;font-weight:normal;font-stretch:normal;font-size:medium;line-height:125%;font-family:'Roboto Slab';-inkscape-font-specification:'Roboto Slab';text-align:start;letter-spacing:0px;word-spacing:0px;text-anchor:start;fill:#000000;fill-opacity:1;stroke:none;stroke-width:1px;stroke-linecap:butt;stroke-linejoin:miter;stroke-opacity:1"
       d="m 192.66588,127.25771 0,2.83007 -1.47656,0 -0.13184,-1.46777 -2.83887,0 0,10.08106 1.43262,0.24609 0,1.10742 -4.59668,0 0,-1.10742 1.43262,-0.24609 0,-10.08106 -2.84766,0 -0.12305,1.46777 -1.48535,0 0,-2.83007 10.63477,0 z" />
    <path
       inkscape:connector-curvature="0"
       id="path4180"
       style="font-style:normal;font-variant:normal;font-weight:normal;font-stretch:normal;font-size:medium;line-height:125%;font-family:'Roboto Slab';-inkscape-font-specification:'Roboto Slab';text-align:start;letter-spacing:0px;word-spacing:0px;text-anchor:start;fill:#000000;fill-opacity:1;stroke:none;stroke-width:1px;stroke-linecap:butt;stroke-linejoin:miter;stroke-opacity:1"
       d="m 156.21861,159.36415 0,-1.10742 2.17092,-0.24609 0,-10.2656 -1.43261,-0.24609 0,-1.11621 9.82617,0 0,3.07617 -1.48535,0 -0.14063,-1.71387 -5.03613,0 0,4.13965 4.89551,0 0,1.3623 -4.89551,0 0,4.76365 5.1416,0 0.14063,-1.71387 1.47656,0 0,3.06738 z"
       sodipodi:nodetypes="ccccccccccccccccccccc" />
    <path
       inkscape:connector-curvature="0"
       id="path4182"
       style="font-style:normal;font-variant:normal;font-weight:normal;font-stretch:normal;font-size:medium;line-height:125%;font-family:'Roboto Slab';-inkscape-font-specification:'Roboto Slab';text-align:start;letter-spacing:0px;word-spacing:0px;text-anchor:start;fill:#000000;fill-opacity:1;stroke:none;stroke-width:1px;stroke-linecap:butt;stroke-linejoin:miter;stroke-opacity:1"
       d="m 185.4774,147.49892 0,-1.11621 4.59668,0 0,1.11621 -1.43262,0.24609 0,10.08106 1.43262,0.24609 0,1.10742 -4.59668,0 0,-1.10742 1.43262,-0.24609 0,-10.08106 -1.43262,-0.24609 z" />
    <path
       inkscape:connector-curvature="0"
       id="path4184"
       style="font-style:normal;font-variant:normal;font-weight:normal;font-stretch:normal;font-size:medium;line-height:125%;font-family:'Roboto Slab';-inkscape-font-specification:'Roboto Slab';text-align:start;letter-spacing:0px;word-spacing:0px;text-anchor:start;fill:#000000;fill-opacity:1;stroke:none;stroke-width:1px;stroke-linecap:butt;stroke-linejoin:miter;stroke-opacity:1"
       d="m 201.24498,150.31142 -1.22168,0 -0.3252,-1.81055 q -0.42187,-0.41309 -1.0371,-0.67676 -0.61524,-0.26367 -1.46778,-0.26367 -1.99512,0 -3.06738,1.4502 -1.07227,1.4414 -1.07227,3.66503 l 0,0.20215 q 0,2.22364 1.0459,3.68262 1.05469,1.4502 2.91797,1.4502 0.87012,0 1.58203,-0.27247 0.71192,-0.27246 1.09863,-0.66796 l 0.3252,-1.81055 1.22168,0 0,2.27637 q -0.55371,0.71191 -1.66113,1.27441 -1.10742,0.55371 -2.56641,0.55371 -2.49609,0 -4.0957,-1.8457 -1.59961,-1.84571 -1.59961,-4.64063 l 0,-0.18457 q 0,-2.8125 1.57324,-4.64941 1.57324,-1.8457 4.12207,-1.8457 1.45899,0 2.56641,0.57128 1.10742,0.5625 1.66113,1.26563 l 0,2.27637 z" />
    <path
       d="m 168.01353,124.38271 -8.05957,0 0,2.8125 0.93164,0 0.0791,-1.91602 6.00293,0 z"
       style="font-style:normal;font-variant:normal;font-weight:300;font-stretch:normal;font-size:medium;line-height:125%;font-family:'Roboto Slab';-inkscape-font-specification:'Roboto Slab Light';text-align:start;letter-spacing:0px;word-spacing:0px;text-anchor:start;fill:#000000;fill-opacity:1;stroke:none;stroke-width:1px;stroke-linecap:butt;stroke-linejoin:miter;stroke-opacity:1"
       id="path4169"
       inkscape:connector-curvature="0"
       sodipodi:nodetypes="ccccccc" />
    <path
       style="font-style:normal;font-variant:normal;font-weight:300;font-stretch:normal;font-size:medium;line-height:125%;font-family:'Roboto Slab';-inkscape-font-specification:'Roboto Slab Light';text-align:start;letter-spacing:0px;word-spacing:0px;text-anchor:start;fill:#000000;fill-opacity:1;stroke:none;stroke-width:1px;stroke-linecap:butt;stroke-linejoin:miter;stroke-opacity:1"
       d="m 166.96763,125.27919 -1.43262,-0.11426 0,-0.78222 1.43262,0 8.05957,0 0,2.8125 -0.93164,0 -0.0791,-1.91602 -6.00293,0"
       id="path4173" />
    <path
       style="font-style:normal;font-variant:normal;font-weight:300;font-stretch:normal;font-size:medium;line-height:125%;font-family:'Roboto Slab';-inkscape-font-specification:'Roboto Slab Light';text-align:start;letter-spacing:0px;word-spacing:0px;text-anchor:start;fill:#000000;fill-opacity:1;stroke:none;stroke-width:1px;stroke-linecap:butt;stroke-linejoin:miter;stroke-opacity:1"
       d="m 165.84165,130.39614 7.41895,0 1e-5,0.89648 -7.41895,0 z"
       id="path4158"
       inkscape:connector-curvature="0" />
    <g
       id="g4218"
       transform="matrix(2.0485781,0,0,2.0485781,-278.5657,-110.88977)"
       style="fill:#ffffff">
      <path
         d="m 259.11792,97.179268 0,1.11621 -1.43261,0.24609 0,7.892582 q 0,1.71387 -1.08985,2.72461 -1.08105,1.00195 -2.8125,1.00195 -1.8457,0 -2.93554,-0.93164 -1.08985,-0.94043 -1.0459,-2.72461 l 0.0176,-0.0527 1.66113,0 q 0,1.18652 0.59765,1.77539 0.60645,0.58008 1.70508,0.58008 0.95801,0 1.56446,-0.64161 0.60644,-0.65039 0.60644,-1.73144 l 0,-7.892582 -1.43262,-0.24609 0,-1.11621 3.16407,0 1.43261,0 z"
         style="font-style:normal;font-variant:normal;font-weight:normal;font-stretch:normal;font-size:medium;line-height:125%;font-family:'Roboto Slab';-inkscape-font-specification:'Roboto Slab';text-align:start;letter-spacing:0px;word-spacing:0px;text-anchor:start;fill:#ffffff;fill-opacity:1;stroke:none;stroke-width:1px;stroke-linecap:butt;stroke-linejoin:miter;stroke-opacity:1"
         id="path4176-7"
         inkscape:connector-curvature="0" />
      <path
         sodipodi:nodetypes="ccccccccccccccccccccc"
         d="m 253.78296,110.16071 0,-1.10742 2.17092,-0.24609 0,-10.265602 -1.43261,-0.24609 0,-1.11621 9.82617,0 0,3.076172 -1.48535,0 -0.14063,-1.713872 -5.03613,0 0,4.139652 4.89551,0 0,1.3623 -4.89551,0 0,4.76365 5.1416,0 0.14063,-1.71387 1.47656,0 0,3.06738 z"
         style="font-style:normal;font-variant:normal;font-weight:normal;font-stretch:normal;font-size:medium;line-height:125%;font-family:'Roboto Slab';-inkscape-font-specification:'Roboto Slab';text-align:start;letter-spacing:0px;word-spacing:0px;text-anchor:start;fill:#ffffff;fill-opacity:1;stroke:none;stroke-width:1px;stroke-linecap:butt;stroke-linejoin:miter;stroke-opacity:1"
         id="path4180-3"
         inkscape:connector-curvature="0" />
    </g>
  </g>
</svg>
