<?xml version="1.0" encoding="UTF-8" standalone="no"?>
<svg
   xmlns:dc="http://purl.org/dc/elements/1.1/"
   xmlns:cc="http://creativecommons.org/ns#"
   xmlns:rdf="http://www.w3.org/1999/02/22-rdf-syntax-ns#"
   xmlns:svg="http://www.w3.org/2000/svg"
   xmlns="http://www.w3.org/2000/svg"
   xmlns:sodipodi="http://sodipodi.sourceforge.net/DTD/sodipodi-0.dtd"
   xmlns:inkscape="http://www.inkscape.org/namespaces/inkscape"
   version="1.1"
   x="0px"
   y="0px"
   viewBox="0 0 128 128"
   xml:space="preserve"
   id="svg2"
   inkscape:version="0.91 r13725"
   sodipodi:docname="lazy-baker.svg"
   width="128"
   height="128"
   inkscape:export-filename="/home/jtebert/google-drive/Projects/Programming/python/recipe-box/workspace/order-icons/tart.png"
   inkscape:export-xdpi="230.39999"
   inkscape:export-ydpi="230.39999"><metadata
     id="metadata16"><rdf:RDF><cc:Work
         rdf:about=""><dc:format>image/svg+xml</dc:format><dc:type
           rdf:resource="http://purl.org/dc/dcmitype/StillImage" /><dc:title></dc:title></cc:Work></rdf:RDF></metadata><defs
     id="defs14" /><sodipodi:namedview
     pagecolor="#ffffff"
     bordercolor="#666666"
     borderopacity="1"
     objecttolerance="10"
     gridtolerance="10"
     guidetolerance="10"
     inkscape:pageopacity="0"
     inkscape:pageshadow="2"
     inkscape:window-width="930"
     inkscape:window-height="1023"
     id="namedview12"
     showgrid="false"
     inkscape:zoom="1.888"
     inkscape:cx="59.004237"
     inkscape:cy="56.144068"
     inkscape:window-x="61"
     inkscape:window-y="27"
     inkscape:window-maximized="0"
     inkscape:current-layer="svg2" /><path
     d="m 26.6945,98.023 c 0.007,0.027 0.002,0.055 0.012,0.082 l 1.717,4.771 c 0.254,0.703 1.133,1.06 2.613,1.06 l 65.803,0 c 1.48,0 2.359,-0.356 2.613,-1.06 l 1.717,-4.77 c 0.01,-0.027 0.005,-0.055 0.012,-0.082 1.575,-0.36 2.756,-1.766 2.756,-3.448 l 0,-2.024 c 0,-1.954 -1.589,-3.543 -3.543,-3.543 l -3.617,0 2.843,-17.497 c 2.649,-1.518 4.442,-4.368 4.442,-7.634 l 0,-8.891 c 0,-0.552 -0.448,-1 -1,-1 l -23.555,0 c 1.657,-1.462 2.71,-3.595 2.71,-5.973 0,-4.012 -2.979,-7.342 -6.842,-7.893 0.63,-1.025 0.971,-2.213 0.971,-3.458 0,-3.221 -2.334,-5.63 -6.403,-6.609 -4.709,-1.134 -4.924,-4.61 -4.933,-5.003 -0.012,-0.543 -0.457,-0.987 -1,-0.987 -3.694,0 -6.699,3.005 -6.699,6.699 0,0.455 0.046,0.903 0.137,1.343 -3.631,0.169 -6.534,3.177 -6.534,6.85 0,1.042 0.239,2.062 0.688,2.986 -3.241,0.653 -5.69,3.522 -5.69,6.954 0,1.998 0.834,3.802 2.167,5.092 l -23.012,0 c -0.552,0 -1,0.448 -1,1 l 0,8.891 c 0,0.062 0.006,0.123 0.017,0.182 0.062,3.066 1.706,5.745 4.141,7.272 l 2.872,17.677 -3.617,0 c -1.954,0 -3.543,1.589 -3.543,3.543 l 0,2.024 c 0.001,1.681 1.182,3.087 2.757,3.446 z m 70.145,3.912 -65.803,0 c -0.38,0 -0.672,-0.039 -0.854,-0.077 l -1.346,-3.741 70.202,0 -1.346,3.741 c -0.181,0.039 -0.473,0.077 -0.853,0.077 z m -48.926,-53.04 c 0,-2.808 2.284,-5.093 5.092,-5.093 0.074,0 0.146,0.006 0.312,0.017 0.403,0.03 0.783,-0.195 0.96,-0.558 0.178,-0.363 0.12,-0.797 -0.147,-1.101 -0.784,-0.89 -1.216,-2.028 -1.216,-3.205 0,-2.972 2.641,-5.361 5.765,-4.77 0.369,0.07 0.748,-0.073 0.978,-0.371 0.23,-0.298 0.273,-0.701 0.112,-1.041 -0.304,-0.639 -0.458,-1.316 -0.458,-2.012 0,-2.296 1.656,-4.213 3.836,-4.62 0.358,1.659 1.654,4.729 6.328,5.855 1.819,0.438 4.871,1.626 4.871,4.665 0,1.452 -0.666,2.794 -1.828,3.682 -0.364,0.278 -0.492,0.769 -0.311,1.19 0.181,0.421 0.624,0.659 1.078,0.592 0.353,-0.057 0.666,-0.085 0.958,-0.085 3.293,0 5.973,2.68 5.973,5.973 0,3.293 -2.68,5.973 -5.973,5.973 l -21.238,0 c -2.808,0.001 -5.092,-2.283 -5.092,-5.091 z m -21.831,14.983 c 0,-0.059 -0.005,-0.116 -0.015,-0.171 l 0,-7.719 75.996,0 0,7.891 c 0,3.749 -3.049,6.798 -6.798,6.798 -3.749,0 -6.798,-3.049 -6.798,-6.798 0,-0.552 -0.448,-1 -1,-1 -0.552,0 -1,0.448 -1,1 0,3.749 -3.049,6.798 -6.798,6.798 -3.749,0 -6.798,-3.049 -6.798,-6.798 0,-0.552 -0.448,-1 -1,-1 -0.552,0 -1,0.448 -1,1 0,3.749 -3.049,6.798 -6.798,6.798 -3.749,0 -6.798,-3.049 -6.798,-6.798 0,-0.552 -0.448,-1 -1,-1 -0.552,0 -1,0.448 -1,1 0,3.749 -3.049,6.798 -6.798,6.798 -3.749,0 -6.798,-3.049 -6.798,-6.798 0,-0.552 -0.448,-1 -1,-1 -0.552,0 -1,0.448 -1,1 0,3.749 -3.05,6.798 -6.798,6.798 -3.748,0 -6.799,-3.051 -6.799,-6.799 z m 4.329,8.44 c 0.784,0.23 1.611,0.358 2.468,0.358 3.383,0 6.327,-1.919 7.798,-4.727 1.472,2.807 4.415,4.727 7.798,4.727 3.383,0 6.326,-1.919 7.798,-4.727 1.472,2.807 4.415,4.727 7.798,4.727 3.383,0 6.326,-1.919 7.798,-4.727 1.472,2.807 4.415,4.727 7.798,4.727 3.383,0 6.326,-1.919 7.798,-4.727 1.472,2.807 4.415,4.727 7.798,4.727 0.756,0 1.486,-0.106 2.187,-0.286 l -2.701,16.619 -61.625,0 -2.713,-16.691 z m -4.473,20.233 c 0,-0.851 0.692,-1.543 1.543,-1.543 l 72.914,0 c 0.851,0 1.543,0.692 1.543,1.543 l 0,2.024 c 0,0.851 -0.692,1.543 -1.543,1.543 l -72.915,0 c -0.851,0 -1.543,-0.692 -1.543,-1.543 l 0,-2.024 z"
     id="path4"
     inkscape:connector-curvature="0"
     style="fill:#f56a6a;fill-opacity:1" /><path
     d="m 54.599,47.654 c -3.814,-0.964 -5.036,-3.093 -5.086,-3.183 -0.176,-0.317 -0.514,-0.519 -0.876,-0.519 -0.552,0 -1,0.448 -1,1 0,0.185 0.05,0.358 0.138,0.506 0.299,0.53 1.911,3.016 6.334,4.134 0.996,0.252 2.183,0.798 2.183,1.968 0,0.552 0.448,1 1,1 0.552,0 1,-0.448 1,-1 -0.001,-1.888 -1.347,-3.311 -3.693,-3.906 z"
     id="path6"
     inkscape:connector-curvature="0"
     style="fill:#f56a6a;fill-opacity:1" /><text
     x="0"
     y="143"
     font-size="5px"
     font-weight="bold"
     id="text8"
     style="font-weight:bold;font-size:5px;font-family:'Helvetica Neue', Helvetica, Arial-Unicode, Arial, Sans-serif;fill:#f56a6a;fill-opacity:1">Created by Made by Made</text>
<text
     x="0"
     y="148"
     font-size="5px"
     font-weight="bold"
     id="text10"
     style="font-weight:bold;font-size:5px;font-family:'Helvetica Neue', Helvetica, Arial-Unicode, Arial, Sans-serif;fill:#f56a6a;fill-opacity:1">from the Noun Project</text>
</svg>